<svg xmlns="http://www.w3.org/2000/svg" xmlns:xlink="http://www.w3.org/1999/xlink" width="51px" height="51px" viewBox="0 0 55 51" version="1.1" class="d-none d-md-block replaced-svg">
    <!-- Generator: Sketch 52.5 (67469) - http://www.bohemiancoding.com/sketch -->
    <title>Logo_Alt</title>
    <desc>Created with Sketch.</desc>
    <g id="Logo_Alt" stroke="none" stroke-width="1" fill="none" fill-rule="evenodd">
        <g id="Group">
            <path d="M12.4147888,22.9206556 L0.750145244,19 C0.546702938,19.3643719 0.381521944,19.7467355 0.258647511,20.1472588 C-1.09027442,24.5493158 2.93879341,29.9538581 9.97011009,34.1891145 C10.271144,30.6699911 11.0746316,26.8300454 12.4147888,22.9206556 Z M20.5455704,38.839691 C20.581472,38.8507886 20.6165308,38.8628951 20.6526009,38.8738246 C33.7406664,42.8656059 45.9084378,41.0704813 48,34.8815389 L24.2879312,26.911428 L20.5455704,38.839691 Z" id="Fill-1" fill="#852C2C"></path>
            <path d="M45.0298507,16.8108855 C44.7288171,20.3300089 43.9253303,24.1699546 42.5851745,28.0793444 L54.249806,32 C54.4532481,31.6356281 54.6184289,31.2534327 54.7413032,30.8527412 C56.0903923,26.4506842 52.0611601,21.0461419 45.0298507,16.8108855 Z M34.4545698,12.160309 C34.4184997,12.1492114 34.383441,12.137273 34.3473709,12.1261754 C21.2593189,8.13439412 9.09156004,9.92951868 7,16.1184611 L30.7120443,24.088572 L34.4545698,12.160309 Z" id="Fill-3" fill="#D8232A"></path>
            <path d="M44.8640082,16.4583072 C45.5644601,8.24952553 43.5432624,1.78596581 39.165861,0.279289617 C38.7676079,0.142180731 38.3590392,0.050211269 37.9425223,0 L34.2537351,11.7824039 C38.2249353,13.0053949 41.8232489,14.6228064 44.8640082,16.4583072 Z M30.498826,23.7756276 L23,47.7272482 C29.2692303,49.6876855 37.9054873,40.8746779 42.375899,27.8953185 C42.388244,27.8594775 42.399067,27.8239745 42.411412,27.7881335 L30.498826,23.7756276 Z" id="Fill-5" fill="#D8232A"></path>
            <path d="M24.5011714,27.2244368 L32,3.27271189 C25.7309367,1.31244897 17.0946768,10.1252636 12.6240944,23.104757 C12.6117494,23.1404289 12.6009264,23.1761007 12.5887505,23.2119417 L24.5011714,27.2244368 Z M10.1359844,34.5417373 C9.43553226,42.7503277 11.4568997,49.21387 15.8341335,50.7207111 C16.2325558,50.8578197 16.6409556,50.9497889 17.0574726,51 L20.7462611,39.2176279 C16.7752286,37.9946403 13.1769138,36.3772332 10.1359844,34.5417373 Z" id="Fill-7" fill="#852C2C"></path>
        </g>
    </g>
</svg>