<?xml version="1.0" encoding="UTF-8"?>
<!DOCTYPE svg>
<svg xmlns="http://www.w3.org/2000/svg" version="1.1" width="1024px" height="132px" style="shape-rendering:geometricPrecision; text-rendering:geometricPrecision; image-rendering:optimizeQuality; fill-rule:evenodd; clip-rule:evenodd" xmlns:xlink="http://www.w3.org/1999/xlink">
<g><path style="opacity:0.943" fill="#565555" d="M 52.5,-0.5 C 60.5,-0.5 68.5,-0.5 76.5,-0.5C 112.763,9.65596 130.263,33.656 129,71.5C 98.5736,72.4955 68.0736,72.8289 37.5,72.5C 37.5,64.5 37.5,56.5 37.5,48.5C 57.8443,48.833 78.1776,48.4996 98.5,47.5C 86.1479,26.7716 68.8146,20.9383 46.5,30C 30.6399,39.886 24.1399,54.0527 27,72.5C 36.1491,97.9911 53.6491,106.824 79.5,99C 85.7277,95.7728 91.061,91.4394 95.5,86C 105.517,85.1678 115.517,85.3344 125.5,86.5C 114.158,113.765 93.6581,127.765 64,128.5C 36.2132,128.033 16.2132,115.367 4,90.5C 2.56378,86.0203 1.06378,81.687 -0.5,77.5C -0.5,68.5 -0.5,59.5 -0.5,50.5C 7.03121,22.9688 24.6979,5.96882 52.5,-0.5 Z"/></g>
<g><path style="opacity:0.951" fill="#93c01e" d="M 151.5,-0.5 C 160.5,-0.5 169.5,-0.5 178.5,-0.5C 178.5,33.8333 178.5,68.1667 178.5,102.5C 191.171,102.667 203.838,102.5 216.5,102C 236.809,100.766 249.309,90.2661 254,70.5C 256.194,54.7197 251.028,41.8864 238.5,32C 233.921,29.0275 228.921,27.0275 223.5,26C 213.197,24.8682 202.863,24.3682 192.5,24.5C 192.5,16.1667 192.5,7.83333 192.5,-0.5C 204.833,-0.5 217.167,-0.5 229.5,-0.5C 262.378,8.05925 280.045,29.3926 282.5,63.5C 280.543,96.2865 263.876,117.453 232.5,127C 205.526,128.406 178.526,128.906 151.5,128.5C 151.5,85.5 151.5,42.5 151.5,-0.5 Z"/></g>
<g><path style="opacity:0.95" fill="#565555" d="M 307.5,-0.5 C 316.5,-0.5 325.5,-0.5 334.5,-0.5C 334.5,42.5 334.5,85.5 334.5,128.5C 325.5,128.5 316.5,128.5 307.5,128.5C 307.5,85.5 307.5,42.5 307.5,-0.5 Z"/></g>
<g><path style="opacity:0.941" fill="#565555" d="M 400.5,-0.5 C 408.5,-0.5 416.5,-0.5 424.5,-0.5C 454.281,7.11683 471.781,26.1168 477,56.5C 477.5,80.4977 477.667,104.498 477.5,128.5C 468.5,128.5 459.5,128.5 450.5,128.5C 450.667,105.498 450.5,82.4976 450,59.5C 444.175,34.0049 428.342,23.1716 402.5,27C 387.355,31.8102 378.188,41.9769 375,57.5C 374.5,81.1643 374.333,104.831 374.5,128.5C 365.167,128.5 355.833,128.5 346.5,128.5C 346.14,103.478 346.64,78.4778 348,53.5C 352.216,30.2858 365.049,13.7858 386.5,4C 391.243,2.36209 395.91,0.862086 400.5,-0.5 Z"/></g>
<g><path style="opacity:0.939" fill="#565555" d="M 542.5,-0.5 C 550.5,-0.5 558.5,-0.5 566.5,-0.5C 598.603,7.11429 616.436,27.4476 620,60.5C 620.5,83.1642 620.667,105.831 620.5,128.5C 611.167,128.5 601.833,128.5 592.5,128.5C 592.667,104.831 592.5,81.1643 592,57.5C 587.4,37.9006 575.067,27.2339 555,25.5C 532.829,28.0035 520.162,40.3368 517,62.5C 516.5,84.4975 516.333,106.497 516.5,128.5C 507.5,128.5 498.5,128.5 489.5,128.5C 489.333,105.498 489.5,82.4976 490,59.5C 493.823,27.5118 511.323,7.51181 542.5,-0.5 Z"/></g>
<g><path style="opacity:0.933" fill="#565555" d="M 688.5,-0.5 C 693.5,-0.5 698.5,-0.5 703.5,-0.5C 701.981,7.80129 700.647,16.1346 699.5,24.5C 673.771,26.2294 659.438,39.8961 656.5,65.5C 659.158,90.1578 672.825,103.825 697.5,106.5C 719.625,104.127 732.958,92.1266 737.5,70.5C 746.192,70.1686 754.859,70.502 763.5,71.5C 757.964,105.033 738.631,125.033 705.5,131.5C 700.167,131.5 694.833,131.5 689.5,131.5C 653.382,124.16 634.049,101.993 631.5,65C 634.37,28.9722 653.37,7.13888 688.5,-0.5 Z"/></g>
<g><path style="opacity:0.934" fill="#565555" d="M 765.5,-0.5 C 774.167,-0.5 782.833,-0.5 791.5,-0.5C 804.654,25.14 817.82,50.8066 831,76.5C 845.008,51.1538 858.508,25.4871 871.5,-0.5C 880.167,-0.5 888.833,-0.5 897.5,-0.5C 875.833,43.5 854.167,87.5 832.5,131.5C 831.833,131.5 831.167,131.5 830.5,131.5C 808.286,87.7397 786.62,43.7397 765.5,-0.5 Z"/></g>
<g><path style="opacity:0.953" fill="#93c01e" d="M 946.5,-0.5 C 972.167,-0.5 997.833,-0.5 1023.5,-0.5C 1023.5,42.5 1023.5,85.5 1023.5,128.5C 1014.5,128.5 1005.5,128.5 996.5,128.5C 996.5,94.1667 996.5,59.8333 996.5,25.5C 982.163,25.3334 967.829,25.5001 953.5,26C 935.794,29.3719 924.961,39.8719 921,57.5C 919.58,81.398 930.413,96.2313 953.5,102C 963.161,102.5 972.828,102.666 982.5,102.5C 982.5,111.167 982.5,119.833 982.5,128.5C 969.129,128.832 955.796,128.332 942.5,127C 911.211,117.703 894.878,96.7031 893.5,64C 895.469,29.5445 913.136,8.0445 946.5,-0.5 Z"/></g>
<g><path style="opacity:0.88" fill="#565555" d="M 714.5,2.5 C 726.276,4.47428 735.943,9.97428 743.5,19C 738.121,24.2113 732.454,29.2113 726.5,34C 725.167,34.6667 723.833,34.6667 722.5,34C 718.882,31.0259 714.882,28.8592 710.5,27.5C 712.019,19.1987 713.353,10.8654 714.5,2.5 Z"/></g>
<g><path style="opacity:0.895" fill="#565555" d="M 750.5,28.5 C 752.624,29.0312 754.124,30.3645 755,32.5C 759.835,40.5027 762.335,49.1694 762.5,58.5C 753.73,59.1183 745.23,58.4516 737,56.5C 735.316,52.1691 733.983,47.8357 733,43.5C 738.812,38.3637 744.645,33.3637 750.5,28.5 Z"/></g>
</svg>
