<svg xmlns="http://www.w3.org/2000/svg" viewBox="0 0 384 60"><g fill="none"><path d="M17.413 35.215c0 2.498-.078 4.651-.228 6.46-.153 1.806-.493 3.289-1.014 4.45-.524 1.163-1.266 2.019-2.225 2.579-.96.56-2.25.835-3.863.835-1.878 0-3.522-.268-4.941-.804-1.42-.536-2.348-.98-2.784-1.34L0 56.363c2.794 1.966 6.156 2.947 10.083 2.947 4.016 0 7.225-.581 9.624-1.74 2.4-1.158 4.223-2.787 5.465-4.885 1.242-2.094 2.052-4.627 2.42-7.595.37-2.968.555-6.26.555-9.871v-24.16H17.413v24.157zM78.014 18.47c-2.052-2.231-4.53-4.025-7.427-5.38-2.901-1.357-6.112-2.032-9.636-2.032-3.437 0-6.603.648-9.504 1.934-2.902 1.292-5.41 3.018-7.529 5.184a23.62 23.62 0 00-4.954 7.511 22.857 22.857 0 00-1.77 8.859c0 3.022.567 5.952 1.708 8.794a24.24 24.24 0 004.783 7.579c2.053 2.21 4.53 3.99 7.428 5.348 2.9 1.358 6.112 2.037 9.636 2.037 3.437 0 6.603-.655 9.504-1.968 2.898-1.314 5.4-3.05 7.494-5.216a23.9 23.9 0 004.919-7.511 22.924 22.924 0 001.774-8.858c0-2.93-.56-5.816-1.677-8.661a24.11 24.11 0 00-4.749-7.62m-5.52 21.227a14.071 14.071 0 01-2.31 4.526c-1.027 1.334-2.32 2.418-3.883 3.247-1.562.833-3.392 1.245-5.486 1.245-2.01 0-3.795-.395-5.354-1.18-1.562-.788-2.866-1.835-3.914-3.148-1.05-1.314-1.84-2.811-2.376-4.496a17.083 17.083 0 01-.803-5.215c0-1.75.257-3.466.769-5.151a13.342 13.342 0 012.34-4.492 12.07 12.07 0 013.883-3.183c1.538-.808 3.357-1.214 5.455-1.214 2.007 0 3.782.385 5.32 1.146a11.979 11.979 0 013.913 3.083c1.071 1.293 1.875 2.78 2.41 4.465.536 1.682.804 3.422.804 5.216 0 1.75-.257 3.465-.769 5.15m21.999-17.532v36.14h11.058V22.115a12.88 12.88 0 01-11.058.049m22.115-.049v36.189h11.058V22.16a12.877 12.877 0 01-11.058-.045m54.755 16.691l-21.366-27.748h-8.258v47.246h10.583V31.289l21.108 27.015h8.519V11.058h-10.586zm21.643-18.163h14.25v37.66h10.77v-37.66h14.184v-9.585h-39.204zm75.726-9.585h-10.385v47.246h32.167V48.72h-21.782zm44.625 0l-16.811 47.246h10.904l3.505-10.579h14.342l3.57 10.579h10.904l-16.81-47.246h-9.605zm-.715 29.147l5.516-16.701 5.388 16.701h-10.904zm69.045-1.861c-1.539-2.041-3.63-3.463-6.278-4.262 2.212-1.017 3.87-2.525 4.976-4.521 1.106-2 1.66-4.127 1.66-6.39 0-1.507-.25-2.981-.747-4.424a12.792 12.792 0 00-2.114-3.86 11.003 11.003 0 00-3.319-2.764c-1.302-.71-2.757-1.065-4.36-1.065H345.8v47.246h22.516c2.125 0 4.14-.253 6.052-.765 1.908-.508 3.58-1.262 5.01-2.262 1.431-1 2.557-2.252 3.383-3.76.825-1.505 1.238-3.283 1.238-5.324-.003-3.19-.775-5.808-2.314-7.85m-25.212-17.966h10.866c1.13 0 2.09.422 2.895 1.262.802.844 1.205 2.041 1.205 3.594 0 1.689-.454 2.927-1.367 3.726-.91.8-1.952 1.197-3.122 1.197h-10.474v-9.78h-.003zm15.29 27.283c-.91.93-2.06 1.397-3.447 1.397h-11.843V38.745h12.296c1.259 0 2.3.509 3.123 1.53.825 1.02 1.238 2.262 1.238 3.725 0 1.508-.457 2.726-1.367 3.66" fill="#43454f"/><path d="M131.64 7.744c-.25-3.194-2.13-6.24-5.843-7.33a.294.294 0 01-.051-.017c-.115-.038-.234-.062-.353-.097a10.86 10.86 0 00-1.973-.295c-2.147-.032-4.257.955-5.895 2.503-1.522 1.524-3.608 3.847-5.738 3.875-2.041.02-4.005-1.781-5.561-3.371l-.492-.504a9.663 9.663 0 00-3.029-1.944 9.484 9.484 0 00-.664-.236c-.23-.063-.461-.132-.709-.164-.007-.003-.014-.003-.02-.003a7 7 0 00-1.472-.16 7.26 7.26 0 00-2.09.278c-3.587.809-5.7 3.75-6.171 6.962-.01.08-.024.163-.034.24-.024.173-.038.35-.048.527-.01.132-.017.26-.02.389a7.92 7.92 0 00.047.948c.251 3.194 2.13 6.243 5.847 7.33.017.003.03.01.047.017.116.038.234.062.353.097.61.15 1.265.254 1.97.295 2.147.032 4.257-.955 5.895-2.503 1.522-1.524 3.608-3.847 5.738-3.875 2.041-.02 4.005 1.785 5.561 3.371.17.17.333.34.492.504a9.61 9.61 0 003.025 1.944c.22.087.444.167.668.236a4.788 4.788 0 00.73.167 7 7 0 001.471.16 7.26 7.26 0 002.09-.278c3.587-.809 5.703-3.75 6.171-6.962.014-.08.02-.16.034-.24.024-.173.038-.35.048-.527.007-.129.017-.26.02-.389a6.874 6.874 0 00-.044-.948" fill="#5AACF5"/></g></svg>